    <svg
      xmlns="http://www.w3.org/2000/svg"
      version="1.0"
      viewBox="0 0 4320 4320"
    >
      <path d="M1046.5 1304.7c-11.4.6-21.9 2.5-32.7 6-5.9 1.9-10.8 3.6-10.8 3.8s491 .4 1091.1.4 1091-.1 1090.8-.3c-1-.9-19.2-6.9-25.4-8.4-6.5-1.5-83-1.6-1057-1.7-577.5-.1-1052.7 0-1056 .2m-56.7 14.3c-7.4 2.6-16.8 6.7-16.8 7.4 0 .4 504.6.6 1121.3.6 986.8-.1 1121-.2 1119.3-1.5-1.1-.8-5.6-3-10-4.8l-8.1-3.2-1100-.2c-1093.5-.2-1100-.2-1105.7 1.7m-114.6 108.8c-1.6 3.7-3.5 9-4.1 11.7-.5 2.8-1.8 7.1-2.9 9.5-2.8 6.6-6.9 21.4-8.1 29.7-1.5 10.1-1.6 1295.8 0 1307 1.2 9.2 6.2 27 9 32.2 1 1.9 1.9 4.4 1.9 5.3 0 2.2 4.5 15.9 6.2 19l1.2 2.3.7-3c1-4.5 1-1419.3 0-1419.9-.4-.3-2.2 2.5-3.9 6.2m-4.7 704.2c0 376.7-.3 685-.6 685s-.9-2.8-1.3-6.3c-1.1-10.4-.7-1349.4.4-1356.2.5-3.3 1-6.3 1-6.8 0-.4.1-.7.3-.7.1 0 .2 308.2.2 685m2439 .1c0 391 .1 710.9.3 710.9.6 0 6.5-14 8.8-20.9l2.4-7.4V2132c0-676.3 0-682.7-2-688.6-1.8-5.5-8.3-21.1-9.1-21.9-.2-.2-.4 319.6-.4 710.6m14.4-669.6c-.6 9.7-.9 1306.5-.4 1322.4.4 11.1 1.1 18.8 1.6 18 .4-.8 1.8-7.3 3.1-14.5l2.3-12.9v-1286l-2.2-12.6c-1.2-6.9-2.7-13.6-3.2-15-1-2.4-1-2.4-1.2.6m-709.2 166.7c-1.3 1.8-5.9 10-10.2 18.3-4.3 8.2-11.9 22.9-17 32.5s-16 30.3-24.3 46c-14.5 27.5-26.7 50.7-35.7 67.5-3.7 6.9-20 38-40.2 76.5-3.4 6.3-9.3 17.5-13.2 24.9-3.9 7.3-7.1 13.7-7.1 14.2 0 1.9-4.7 3.9-9.2 3.9-13.1 0-47.3 6.2-79.6 14.6-24.4 6.2-32.1 8.6-51.7 15.9-68.7 25.9-114.1 54.5-165.5 104.2-50.9 49.2-87.6 112.3-101.1 173.8-5.4 24.4-7.3 42.8-7.2 69.5 0 32.5 3.9 61.1 12.8 93.5 4.6 16.9 20.3 55.1 31.8 77.5 13.5 26.1 26.8 47 37.8 59.3l5.2 5.8-2.1 3.7c-1.1 2-8.8 16.7-17.2 32.7-31.3 59.6-37.5 71.5-48.3 91.5-6 11.3-12.2 22.7-13.7 25.5-1.5 2.7-5.8 11-9.4 18.2-3.7 7.3-7 13.3-7.4 13.3s-2.3-3-4.1-6.8c-1.8-3.7-10.1-19.5-18.3-35.2-17.9-33.9-46.2-88.1-61.5-118-6.1-11.9-14.7-28.3-19-36.5-11.4-21.4-18.5-35.2-50.3-96.5-15.6-30-34.7-66.7-42.5-81.5-7.8-14.9-22-42.1-31.5-60.5s-24.2-46.8-32.7-63c-8.6-16.2-18.1-34.5-21.3-40.5-3.1-6.1-10.1-19.6-15.5-30-18.3-35.4-47.7-92-49.5-95-1-1.7-8.9-16.7-17.5-33.5-8.7-16.8-18.5-35.9-22-42.5-3.4-6.6-9.7-18.8-14-27-4.3-8.3-12.1-23.1-17.3-33-13.8-26.4-32.7-62.8-51.2-98.5-9-17.3-22.5-43.2-30-57.5s-18.1-34.6-23.5-45c-14.6-28.4-24.5-47.4-27.5-53-1.5-2.8-5.5-10.5-8.9-17.1-3.4-6.7-6.8-12.7-7.6-13.4-.7-.6-2.4-1-3.7-.8-2 .3-2.4 1.1-3 6.3-.4 3.3-1.2 8.9-1.8 12.5-.9 6.4-5.2 37.2-9.1 66.5-1.1 8.2-2.9 21.3-3.9 29-1.1 7.7-2.7 19.4-3.5 26-.9 6.6-2.5 18.5-3.6 26.5-1 8-2.8 21.2-3.9 29.5-1.1 8.2-2.9 21.7-4 30-2.7 19.4-5.4 39.8-7.4 55.5-.9 6.9-2 15.2-2.6 18.5-.5 3.3-1.5 10-2 15-.6 4.9-1.5 11.9-2 15.5-.6 3.6-1.7 11.7-2.5 18-1.6 13.5-6.1 47.7-7.4 57-.6 3.6-1.5 10.1-2 14.5-5.7 42.9-8.9 67-11.1 82.5-1.1 7.4-2.9 20.5-4 29s-2.5 18.2-3 21.5-1.4 9.6-2 14c-.5 4.4-1.7 13.2-2.5 19.5-.9 6.3-2 14.9-2.6 19-1.9 14.6-2.9 21.7-4.9 36.5-2.9 21.1-7.9 57.6-9.1 66.5-1.6 11.9-2.8 21.4-3.9 29.2-.5 4-1.6 12.7-2.5 19.3-.8 6.6-1.9 14.7-2.5 18-.5 3.3-1.4 9.8-2 14.5s-1.5 11.2-2 14.5-1.6 11.6-2.5 18.5c-.8 6.9-1.9 15.5-2.5 19.2-.5 3.7-1.4 10.2-1.9 14.5-1.1 8.5-3.9 29.9-7.1 54.3-1.2 8.5-3 22-4 30-1.1 8-2.8 21.2-4 29.5-1.1 8.2-2.9 21.5-4 29.5-1 8-2.8 21.2-4 29.5-1.1 8.2-2.5 18.3-3 22.2-1.1 8.3-2.6 19.1-4 29.5-1 7.5-2.4 18.2-4 29.8-1.1 7.5-2.2 15.7-5 36.5-2.4 18.7-8.9 66.7-13 96.5-3.1 22.5-3.6 26.2-6.5 48.4-.9 6.9-1.2 12.3-.7 12.8s7.8.7 16.3.6l15.4-.3 1.2-8.5c.7-4.7 2.2-15.3 3.3-23.5 1.1-8.3 2.9-21.5 4-29.5 1.2-8 2.7-19.9 3.5-26.5s1.9-14.9 2.5-18.5 1.7-11.9 2.6-18.5c.8-6.6 2.4-18.5 3.4-26.5 4-29.4 6-44.9 8-59.5 1.1-8.3 2.7-20.4 3.5-27 .9-6.6 3.4-25.1 5.6-41 4.6-33.9 6.1-45 12.9-95.5 6.5-48.6 8.9-66.1 10-73.5.5-3.3 1.4-10.1 2-15 .6-5 1.5-11.7 2-15s1.4-9.6 2-14c1-7.6 2.4-18 6.9-50.5 1.1-8 3-21.5 4.1-30s3-22 4-30c2.6-19.1 6.5-48.7 9.1-68 1.1-8.5 2.5-18.4 3-22 .6-3.6 1.7-12.1 2.5-19 .7-6.9 1.8-14.8 2.3-17.5.6-2.8 1.5-9.7 2.1-15.5s1.5-13 2.1-16c.5-3 1.6-11.1 2.5-18s2.4-18.8 3.5-26.5 2.6-19.4 3.4-26c.9-6.6 2.4-18.5 3.5-26.5 5.1-37.3 6.1-44.5 8-59 1.1-8.5 2.9-21.6 4-29s3.3-23.9 5-36.5c3.5-26.2 3.8-27.5 4.8-27.5.4 0 3.5 5.5 6.9 12.3 3.5 6.7 9.6 18.5 13.6 26.2s15.8 30.4 26.2 50.5c10.3 20.1 20.2 39.2 22 42.5 5.8 10.8 14.1 26.7 23 44 4.8 9.3 10 19.2 11.5 22 1.5 2.7 8.3 15.8 15 29 13.1 25.6 18.2 35.3 32 61.5 4.8 9.1 13.1 25 18.5 35.5 5.4 10.4 10.1 19.4 10.5 20 .4.5 7.1 13.6 15 29 7.8 15.4 16.4 32 19 37 2.6 4.9 7.6 14.4 11 21 3.5 6.6 8.2 15.6 10.5 20s8.2 15.6 13 25c4.8 9.3 10.9 21 13.5 26 2.6 4.9 8.6 16.4 13.3 25.5 11.2 21.8 30 57.9 42.4 81.5 9.8 18.7 18 34.5 38.3 74 5.7 11 13.8 26.5 18 34.5 4.3 8 11.9 22.6 17 32.5s11 21.2 13.1 25.1c4.3 8.1 12.8 24.5 25.1 48.4 22.2 42.9 38.2 73.9 40.3 77.5 3 5.4 11.9 22.5 25 48 10.6 20.7 15.2 27.5 18.6 27.5 2.6 0 5.7-4.6 14.4-21.5 4.3-8.3 14.7-27.8 23-43.5 8.4-15.7 20.8-39.3 27.7-52.5s13.7-26 15-28.5c1.4-2.5 5.8-10.8 9.8-18.5s14.1-26.8 22.5-42.5 18.2-34.1 21.8-41 13.4-25.6 21.7-41.5c8.4-16 18.6-35.4 22.7-43.3l7.5-14.2 3.3 2.7c1.8 1.6 6.7 5.8 10.9 9.5 4.2 3.6 14.1 10.9 21.9 16.1 30.4 20.4 62.8 34.5 103 44.7 34 8.7 57.1 12.8 83.7 15 7.4.6 17.1 1.5 21.5 2s30.5 1.4 58 2c52.3 1.1 125.9 3 126.2 3.3.1.1.6 4.3 1.2 9.2.6 5 2.2 18.7 3.6 30.5s3.4 29.4 4.5 39 2.5 21.1 3 25.5 1.4 12.3 2 17.5c2.4 20.8 2.8 24.3 9.1 76 1.1 9.1 2.4 20.2 2.9 24.7.6 4.6 1.4 12 2 16.5.5 4.6 1.4 12.6 2 17.8 1.8 15.9 3.1 25.4 3.6 27.2.5 1.7 4.9 1.8 73.5 1.8h72.9v-2.3c0-1.2-.5-5.6-1-9.7-1.7-12.9-8.2-67.5-10-83.5-.5-4.4-1.4-12.3-2-17.5-1.7-14.7-5-42.6-6-52-.5-4.7-1.4-12.3-2-17-1-8.2-3.2-27.3-6.4-55-.9-7.4-2.1-17.7-2.7-22.8s-1-9.5-.7-9.7c1-1 22.2 5.1 40.3 11.5 35.5 12.5 75.7 38.1 98.1 62.3 13.4 14.4 27.9 34.2 37.8 51.5 9.3 16.3 25.2 49.9 28.8 60.7 9 27.1 16.8 66.2 16.8 84.3v6.2h-991.9c-625.3 0-992.2.4-992.6.9-.8 1.4 1.7 2.5 12.5 5.5 5.2 1.5 11.8 3.8 14.6 5.1 2.9 1.3 9.4 3.6 14.5 5.2l9.4 2.8 966.8.3 966.7.2v5.4c0 14.7-6.1 48.1-12.4 67.6-19.6 61.1-66.1 118.7-127.7 158.2-24.8 15.9-59 32.4-92.9 44.6-14.4 5.3-63.8 18.9-79.6 22.1-19.2 3.8-55.2 8.8-72.4 10.1-40.9 3-95-.5-135-8.8-15.9-3.3-22.1-4.8-37.6-9.3-15.5-4.3-20.5-5.5-20.4-4.7 0 .2 3.5 9.5 7.8 20.8 8.2 21.8 7.7 21 16.2 24 1.9.7 6.4 1.8 10 2.5s8.3 1.7 10.5 2.3 6.9 1.3 10.5 1.7 10.1 1.3 14.5 2.1c21.8 3.8 74.5 5.6 105 3.4 37.3-2.6 65.4-6.4 100-13.4 49.1-9.9 115.5-33.1 153-53.3 43-23.3 71.6-42.9 98.7-67.6 35.8-32.8 52.7-51.9 77-87.2 21.9-31.8 40.1-69.7 52.2-108.7l3.6-11.7 57.3-.4 57.2-.3 11.5-3.2c6.3-1.8 11.9-3.7 12.4-4.2.7-.7-23-1-67.7-1-62.2 0-75-.5-65.9-2.3 1.5-.4 34.4-.6 73.2-.5h70.5l8.4-2.8c4.6-1.6 8.4-3.4 8.5-3.9.1-.7-27.1-1.1-79.4-1.2-43.7-.2-80-.5-80.7-.7-.8-.3-.9-1.5-.2-4.3 2.3-9 5.8-40.3 6.4-56.8 1.4-37.2-4.8-79.9-16.7-116.4-4.4-13.6-27.3-61.4-37.8-79.1-15.9-26.9-33.6-49.6-54.1-69.5-19.2-18.7-33.9-29.8-57.6-43.8-39.3-23.2-89.9-40.7-146.5-50.6-6.4-1.2-12.7-2.1-14-2.1-4 0-5.1-1.6-5.9-8.2-.4-3.5-1.2-10.6-1.9-15.8-.6-5.2-1.5-13.1-2-17.5s-1.4-11.8-2-16.5c-.5-4.7-1.4-12.1-1.9-16.5-.6-4.4-2.4-19.7-4.1-34s-3.5-29.8-4.1-34.5c-.5-4.7-1.3-12.3-1.9-17-1-8.2-2.7-22.7-7-58.8-1-9.2-2.9-24.6-4-34.2-2.5-20.6-3.7-30.7-4.4-37.5-.3-2.8-1.5-12.7-2.6-22-1.1-9.4-2.5-20.8-3-25.5-.6-4.7-1.5-11.9-2-16s-1.2-10-1.5-13c-.4-3-1.1-9.1-1.6-13.5s-1.8-15.9-2.9-25.5-2.9-25.2-4-34.5c-2.7-22.4-5.6-48-8-69-1.1-9.4-2.9-24.9-4-34.5s-2.9-25.2-4-34.5c-2-17.5-4.8-41.1-7.5-64-2.5-21.7-5.4-46-7.5-64.5-2.7-23.2-5.6-47.6-7.5-63-.9-6.9-2-16.6-2.6-21.5-.5-5-1.6-14.6-2.4-21.5s-2-16.8-2.5-22c-.6-5.2-1.5-12.2-2-15.5s-1.4-11.4-2-18c-1.3-14.3-2.8-22.5-4-22.5-.5 0-2 1.5-3.3 3.2M2506 1908c-2 1.3-3.3 1.3-2.5 0 .3-.6 1.4-1 2.3-1 1.5 0 1.5.2.2 1m2.7 36.8c.8.5 2 8.1 3.3 20.1 1.1 10.6 2.2 20.3 2.5 21.4.3 1.2 1.2 8.5 2 16.2s2.3 21.6 3.4 31c1.1 9.3 2.9 24.6 4 34 2.1 17.9 5.5 47.5 7.2 61 .5 4.4 1.8 16.1 2.9 26s2.7 23.4 3.5 30 2.4 19.9 3.5 29.5 3 24.9 4 34c1.1 9.1 2.2 18.5 2.5 21s1 7.9 1.6 12c.5 4.1 1.4 11.5 1.9 16.5.5 4.9 1.4 12.6 2 17s1.5 12 2 17c.5 4.9 1.5 12.8 2 17.5 1.4 11.6 4.6 38.6 6.4 55 .9 7.4 1.8 15.3 2.1 17.5s1.4 11.6 2.5 21c4.7 41.1 6 51.3 6.8 56.3.5 2.9.6 5.4.3 5.7-1.1.6-60.6-1.4-72.6-2.5-6-.5-20.2-1.4-31.5-2-17.7-1-42.7-3.1-52.5-4.5-1.6-.2-6.6-.9-11-1.5-21.4-3-51.9-8.9-65-12.6-12-3.4-43-14.7-53.1-19.4-23-10.7-57.4-33.7-57.4-38.4 0-1.1 3.8-9 8.4-17.5 11.8-21.9 23.6-44.3 44.1-83.6 9.8-18.7 22.6-43 28.5-54s17.8-33.5 26.5-50 17.7-33.6 20-38 9.5-18.1 16-30.5 14.6-27.7 18-34c6.9-12.8 32.3-60.8 45.1-85.5 4.6-8.8 16.6-31.5 26.6-50.5l18.4-34.5 7.4-.6c12.1-.9 16.4-.9 17.7-.1m-67 11.4c-1.9 3.5-8.5 16-14.7 27.8-15.6 29.7-37.7 71.7-47 89-7.9 14.9-13.6 25.7-23.3 44-16.3 31.1-45.4 86.2-51.7 98-6.8 12.7-27.3 51.6-47.7 90.5-25.1 47.8-49.6 93.5-50.2 93.5-.4 0-4.1-4.8-8.3-10.8-30.9-43.8-50.3-100.6-52.5-153.6-2.1-51.3 11.9-101.8 40.1-145.1 17.3-26.4 44-52.6 78.2-76.6 23.7-16.7 71.7-37.5 109.3-47.5 5.3-1.4 10.7-2.9 12.1-3.4s4.1-1.2 6-1.5 6.9-1.4 11-2.5c12.3-3.1 22-5.2 30.5-6.5 12.8-2 12.2-2.4 8.2 4.7m521 993.5c.4 1-195.1 1.3-975.4 1.3-536.7 0-977.5-.3-979.5-.6-2.1-.4-3.8-.9-3.8-1.3 0-.3 440.6-.6 979.2-.6 782.4 0 979.2.3 979.5 1.2" />
    </svg>