<svg xmlns="http://www.w3.org/2000/svg" version="1.0" viewBox="0 0 4320 4320"><path d="m781.3 1099.8-6.1.3v50.7c0 55.3-1.7 208.9-3.2 294.7-.6 29.7-1.5 97.6-2 151-.6 53.3-1.5 123.8-2 156.5-1.6 98.1-1.9 121-3 228-.6 56.4-1.3 107.2-1.5 113-.3 5.8-1 49.6-1.5 97.5-1.4 115.9-2.6 210.3-4.4 349-3.2 240.9-3.7 279.2-4.6 321-.6 23.6-1 49.1-1 56.5v13.5l1395.2-.3c767.4-.1 1395.8-.2 1396.3-.2.7 0 .9-148.3.8-443.2l-.2-443.3-669.8-.5c-368.4-.3-669.7-.8-669.5-1.3.1-.4.2-203 .2-450.2V1143h1363l-.2-21.8-.3-21.7h-1390c-764.5 0-1392.8.1-1396.2.3m687.3 44c.7.5-3.5 12.3-12.6 35.2-7.5 19-18 45.5-23.3 59-29.2 74.5-34.8 88.7-44.2 112.5-13.6 34.3-31.9 80.7-38.4 97.5-8.1 20.6-23.4 59.6-43.8 111-10.1 25.6-20.2 51-22.3 56.5s-6.2 15.8-9 23c-5.5 14.1-13 33.3-19.1 48.9-2.1 5.4-4.1 10.1-4.5 10.5-.3.3-1.5-.5-2.5-1.9-13.7-18.9-30.1-41.5-42.4-58.5-13.4-18.6-23.9-33.1-41-56.5-2.7-3.8-16.7-23-31-42.6-14.3-19.7-33.4-46-42.5-58.5-34.8-47.8-53.7-73.9-63.5-87.4-5.6-7.7-14.8-20.4-20.6-28.3-19.4-26.6-47-64.6-55.7-76.7-4.7-6.6-14.1-19.4-20.8-28.5-6.6-9.1-24.6-33.8-39.9-55s-31.3-43.2-35.6-48.9-7.6-10.7-7.3-11.2c.6-1 618.4-1.2 620-.1m647.9-.2c1.2.5.7 1.6-2.3 5.3-2.1 2.5-7.2 9.3-11.2 15.1-4.1 5.8-17.3 24.4-29.5 41.5-12.2 17-29.1 40.9-37.6 52.9-18.1 25.7-18.8 26.8-29.9 42.2-17.1 24.1-50.7 71.5-58.5 82.5-4.5 6.3-17.7 24.9-29.5 41.4-11.7 16.5-26.1 36.7-31.8 45-5.8 8.2-18.2 25.8-27.7 39-17.3 24.2-41 57.6-58.6 82.5-5.3 7.4-18.5 26.1-29.5 41.4-10.9 15.4-21.8 30.7-24.2 34-2.4 3.4-7.1 10.1-10.4 15.1-3.4 4.9-6.3 9.2-6.5 9.4-1.1 1.3-3.6-3.6-7.2-13.9-2.1-6.3-6.9-19.4-10.6-29-18.4-48.1-29-76.3-49-130-17.9-48.1-24.6-66-32.5-87-14.3-37.5-22.2-58.4-23-61-.5-1.4-3.2-8.6-6-16s-7.8-20.7-11-29.5-9.5-25.9-14-38-10.8-29-14-37.5c-6.6-17.8-17.5-46.4-25-66-2.8-7.4-6.9-18.4-9.1-24.3-2.1-5.9-4.3-11.6-4.9-12.7-.9-1.6-.6-1.9 1.8-2.3 4.2-.6 590-.7 591.7-.1m44.7 458.4-.2 442h-150.4c-119.1 0-150.6-.3-151.3-1.3-.6-.6-1.7-3.2-2.6-5.7-.8-2.5-4-11-7-19-9.2-24.6-30.7-82-34.4-92-4.5-12.3-28.5-76.3-35.6-95-3-8-11.2-29.6-18.2-48s-13.2-35.1-13.8-37c-1.1-3.7-.9-4 22.1-36 14.9-20.8 28.9-40.5 45.2-63.5 10.1-14.3 31-43.8 46.5-65.5 15.4-21.7 30.7-43.3 34-48 3.2-4.7 19.7-27.9 36.5-51.5 27.6-38.7 40.9-57.5 91.5-129 8.2-11.6 16.5-23.3 18.5-26 2-2.8 9.3-12.9 16-22.5 16.3-23.1 20.4-28.9 33.4-47.1 6.1-8.5 16.9-23.7 24.1-33.9s20.2-28.5 28.9-40.8c8.7-12.2 16.1-22.2 16.4-22.2.4 0 .6 198.9.4 442M828 1191.5c3.5 4.9 31.7 44 62.9 86.8 31.1 42.9 66.3 91.3 78.1 107.6 11.8 16.4 31 42.8 42.6 58.7s29.2 40.1 39.2 53.9c10 13.7 20.9 28.8 24.3 33.5 27.8 38 39.7 54.4 53.4 73.5 8.8 12.1 22.2 30.5 29.9 41 7.6 10.4 23.8 32.7 35.8 49.3 12.1 16.7 25 34.5 28.7 39.6 9.9 13.4 9.5 11.7 5.1 22.6-4.6 11.4-26.9 68.1-46.5 118.5-4.3 11-14 35.6-21.6 54.7-7.6 19-16.4 41.1-19.4 49-3.1 7.8-10 25.4-15.3 39l-9.7 24.7-153.9.1H807.7l.7-50.3c.3-27.6.8-58.8 1.1-69.2 1.1-43.5 1.7-84.2 2.6-178 .5-54.5 1.3-120.4 1.9-146.5s1.5-93.6 2-150c1.6-161.9 3.6-269.8 5-268.3.5.4 3.6 4.8 7 9.8m676 28c3.7 10.5 12.7 34.7 19.9 54 27.2 72 62.7 166.7 78.9 210.5 2.8 7.4 11.2 29.7 18.7 49.5s19.2 51.1 26 69.5c6.8 18.5 12.8 34.7 13.4 36 4.9 11.8 35.1 94.4 35.1 96 0 1.7-40.3 60.2-59 85.5-2 2.7-5.6 7.7-7.9 11s-12.4 17.5-22.3 31.5c-10 14-22.2 31.3-27.3 38.5-9.7 13.8-70 98.5-77.9 109.5-2.5 3.6-6 8.9-7.7 11.8-1.8 2.9-3.5 5-3.9 4.5-1.1-1.1-33-45.1-68.3-93.8-7.2-9.9-19.6-27-27.7-38s-20.5-28.1-27.7-38c-7.1-9.9-20.3-28.1-29.3-40.5s-21.1-29-26.8-37c-5.8-8-14.4-19.6-19.1-25.9-5.7-7.8-8.4-12.3-8.3-13.8.1-1.3 1.5-5.6 3.1-9.6s6.9-17.1 11.6-29.2c4.8-12.1 14.2-36 21-53 6.8-17.1 14.8-37.3 17.8-45 13-33.1 21-53.5 23.7-60.5 4.4-11.5 17.8-45.5 52.5-133 5.3-13.5 11-27.9 12.5-32 4.3-11.6 29.8-76.2 52.6-133.7 7.9-19.9 14.4-36.4 14.4-36.8 0-1.9 3.2-7.6 4.1-7.3.6.2 4.1 8.9 7.9 19.3m213.8 571.2c.5 1.6 2.2 5.9 3.7 9.8 1.5 3.8 4.4 11.7 6.6 17.5 2.1 5.8 5.7 15.4 7.9 21.5 2.3 6 5.9 15.7 8 21.5s10 26.7 17.5 46.5 16.5 43.6 19.9 53c15.7 42.3 20.7 55.9 25.5 68.3 2.8 7.4 5.1 13.8 5.1 14.3 0 1-277.3 1.3-278.3.2-.4-.3.8-2.5 2.6-4.7 1.8-2.3 5.5-7.3 8.2-11.1 2.7-3.9 8.8-12.4 13.5-19 4.8-6.6 15.8-22.1 24.5-34.5 20.5-29.1 38.9-54.9 59-83 8.9-12.4 20.8-29.3 26.6-37.5 23.5-33.8 46.5-65.5 47.5-65.5.6 0 1.6 1.2 2.2 2.7m-433.2 29.3c11.4 15.7 23.3 32.1 26.5 36.5 3.1 4.4 9.7 13.5 14.6 20.2 4.8 6.7 13.3 18.4 18.8 26 5.4 7.6 15.4 21.2 22 30.3 21.9 29.9 44 60.2 57.5 79 7.3 10.2 15.5 21.3 18.2 24.7 2.6 3.5 4.8 6.5 4.8 6.8s-63.9.5-142.1.5c-113.3 0-142-.3-141.6-1.3.7-1.8 30.5-77.2 33.2-84.2 1.3-3.3 4.4-11.4 7-18 6-15.6 16.9-43.2 37.5-95 9.2-23.1 17.7-45.1 19-48.8 1.2-3.8 2.6-6.5 3-6 .5.4 10.2 13.6 21.6 29.3m-187.3 268.7c.3.5-9.1 24.9-20.8 54.3-19.6 49.5-25.1 63.5-42.9 109-8.7 22.6-19.1 48.9-36 91.5-7.9 19.8-17.1 43-20.4 51.5-26.3 67.4-36.8 94.3-46.7 119-11.6 29.3-27.9 70.3-34.2 86.4-1.9 5-6.4 16.5-10 25.6s-9.8 25-13.8 35.5c-4 10.4-13.7 35-21.5 54.5-17 42.5-33.1 83.5-44.6 113.4-4.6 12.1-8.7 22.2-9 22.5s-.3-4.8 0-11.4c.9-21.1 1.7-69.4 2.7-173 .5-55.6 1.4-122.8 1.9-149.5.6-26.7 1.4-94.2 2-150 .5-55.8 1.6-139.1 2.5-185 .8-45.9 1.5-86.1 1.5-89.3v-5.7h144.4c79.5 0 144.7.3 144.9.7m731.3.1c.7.4 2.8 5.2 4.7 10.7 2 5.5 7.6 20.8 12.7 34 12.4 32.6 39.1 103.8 43.3 115.5 1.9 5.2 4.8 13.1 6.5 17.5 1.8 4.4 5.5 14.3 8.3 22 2.9 7.7 8.3 22.3 12.1 32.5 3.9 10.2 8.3 22.1 9.8 26.5 1.6 4.4 4.2 11.4 5.8 15.5s9.3 24.6 17.1 45.5 15.1 40.2 16.2 43c4 10.4 12.1 32.4 15.4 41.5 1.9 5.2 6.2 16.7 9.5 25.5 3.4 8.8 7.2 18.9 8.5 22.5 3.1 8.4 9.9 26.6 11.5 30.5.7 1.6 2.5 6.4 4 10.5 7 18.7 12.3 33 14.6 38.8 2.7 6.9 17.4 46.4 23.9 64.2 2.3 6.3 7.9 21.6 12.4 34 4.6 12.4 8.9 23.8 9.6 25.5.8 1.6 3.7 9.3 6.6 17s7.6 20.3 10.5 28c2.8 7.7 9.3 25 14.3 38.5 5.1 13.5 10.1 26.7 11.1 29.5 7.2 18.5 11 28.7 11 29.5 0 .7-231 1-648.5 1-356.7 0-648.5-.4-648.5-.8 0-.8 6.5-17.3 33.4-85 6.3-15.8 15.1-38.2 19.6-49.7 4.5-11.6 10.1-26 12.5-32 2.4-6.1 5.4-13.9 6.8-17.5 4-10.2 22.6-57.3 37.2-94 7.3-18.4 16.1-40.7 19.5-49.5 12.6-32.7 28.6-73.3 46-117 16.7-42.2 33.5-84.9 45.2-115 2.8-7.2 9.8-24.9 15.5-39.5 5.8-14.6 13.9-35.1 18-45.5 4.1-10.5 11.7-29.6 16.8-42.5s13.6-34.5 18.8-48 11.8-30.4 14.6-37.5c2.8-7.2 6.1-15.5 7.3-18.5 1.1-3 2.5-6.1 3.1-6.8.7-.9 70.2-1.2 341.6-1.2 187.3 0 341.1.4 341.7.8m332 .4c.5.8.7 165.5.4 380.8l-.5 379.5-4.9-13.5c-8.9-24.8-67.6-181.9-81.6-218.5-3.4-8.8-7.2-18.9-8.5-22.5s-3.5-9.4-4.8-13c-1.4-3.6-4.8-12.8-7.7-20.5-5.7-15.4-9.8-26.4-54.5-146-35.1-93.9-55.9-149.6-84.5-225.5-11-29.4-23.5-62.7-27.7-74s-8.2-21.8-9-23.3-1.1-3.2-.8-3.7c1-1.6 283-1.3 284.1.2M3500 2488v400h-647.5c-356.1 0-647.5-.3-647.5-.8-.6-241.1-.3-798.3.5-798.6.6-.3 292-.5 647.8-.5l646.7-.1zm-1726.4 586.2c-.4 3.4-1.6 12.1-2.7 19.3-2.1 14.2-9.4 67.5-10.5 76.7-.5 4.8-.4 5.8.9 5.8 1.7 0 2.3-2 3.2-10 .3-3 1.5-11.8 2.5-19.5 5.2-36.9 6-43.3 6-46.7 0-2 .4-3.9.9-4.3 1-.6 3.8 4.6 26.3 48 7.7 14.8 14.5 27.6 15.1 28.3 1.4 1.7 2.8 0 6.4-7.8 1.4-3 4.5-8.9 6.8-13s7.6-14 11.7-22c11.9-22.9 17.9-33.9 18.8-34.5 1-.6 1.1.4 4 26 1.2 9.9 2.7 23.4 3.5 30s1.8 15 2.1 18.7l.7 6.8h6.3c7.3 0 6.9.8 5.3-11-.5-4.1-1.4-11.6-1.9-16.5-.5-5-1.6-14.4-2.4-21-4.2-33.3-5.6-46.2-5.6-52.6 0-3.8-.3-6.9-.7-6.9-1 .1-5.3 7-9.3 15-1.8 3.6-4.9 9.4-7 13-4.3 7.5-10.9 19.7-23 42.8-4.8 9-9.1 16.5-9.6 16.5-.5.1-2.4-2.7-4.2-6.3-4-7.9-19.3-37.4-25.7-49.6-2.6-4.9-7.2-13.6-10.2-19.4-3.1-5.8-5.9-10.9-6.3-11.3-.4-.5-1.1 2-1.4 5.5m201.4-5.2c-24.9 3.2-43.2 20.5-46.2 43.6-1.8 14.6.4 30.1 5.7 40.5 2.4 4.6 11.8 14.2 17.5 17.9 8.4 5.4 19 8.1 32 8.3 10.2.1 12.4-.2 19.7-2.6 8.6-3 13.3-5.9 13.3-8.3 0-1.9-.9-1.8-4.7.6-1.7 1-7.1 3.1-11.8 4.6-7.6 2.3-9.7 2.6-17.8 2.1-14.6-.9-25-5.9-32.1-15.6-6.6-9-9.7-20.2-9.7-35.3 0-12.5 1.5-20.6 5.7-29.4 4.4-9.4 9.8-14.8 19.3-19.2 7-3.3 8.5-3.6 18.7-4 11.7-.4 18.3.8 26.8 4.9 4.7 2.3 5.6 2.3 5.6.6 0-6.1-23.9-11.1-42-8.7m190.4 4.7c-1.4 3.2-6.2 13.7-10.6 23.3s-8.5 18.8-9.3 20.5c-.7 1.6-3.2 7-5.5 12-2.3 4.9-6.4 14.2-9.2 20.5s-6.6 14.5-8.4 18.3c-2.9 5.7-3.2 6.8-1.9 7.3 2 .8 5-1.9 6.6-5.9.7-1.8 2.9-6.8 4.9-11.2s5.1-11.5 7-15.8l3.4-7.7 21 .2 21 .3 7.3 17.5c10.5 25 8.7 22.4 16.7 22.8 5.3.2 6.7 0 6.3-1-.3-.7-3.8-8.7-7.7-17.8s-8.6-20.1-10.4-24.5c-1.9-4.4-8-18.6-13.6-31.5s-10.9-25.4-11.7-27.7c-.8-2.4-1.9-4.6-2.4-4.9s-2.1 2.1-3.5 5.3m6.9 33.5c4.3 10.1 8.1 19.3 8.4 20.5l.5 2.3-14.8.1c-8.2.1-16.6.3-18.6.4l-3.7.2 1.3-3.1c2.6-5.9 14.3-32.1 16.2-35.8.9-2.1 2-3.6 2.2-3.3.3.3 4.1 8.7 8.5 18.7m251.4-37.5c-6.2 2.1-13.9 9-16.6 14.8-2.3 5-2.9 16.2-1 21.2 3 8.2 11 15.1 22.9 19.9 23.4 9.3 30.2 16.7 28.7 31-1.1 10.3-8.3 17.8-18.8 19.5-8.2 1.3-21.9-.3-26.3-3-8-5.1-8.6-5.3-8.6-3.2 0 2.3 4.2 5.5 10.2 7.8 3.1 1.1 8 1.6 17.3 1.7 12.6.1 13.2 0 18-2.8 6.5-3.7 13.1-10.1 15.8-15.1 1.7-3.2 2.1-5.8 2.2-12.5 0-7.5-.3-9.1-2.7-13.1-1.5-2.5-4.6-6.3-7-8.5-4.3-4-6.5-5.2-23.8-13.1-14.3-6.6-19-12.2-19-22.9 0-7.4 2.9-13.5 7.8-16.6 3.2-2 5.3-2.3 15.2-2.6 10.7-.3 11.8-.2 16.5 2.2 2.9 1.5 5.3 2.2 5.8 1.7 1.4-1.4 0-2.9-4.6-5.3-5.8-3-24.8-3.6-32-1.1m-168.2.3-26 .5-.3 52.7-.2 52.8h18.7c24.1 0 35.3-.8 35.3-2.6 0-1.1-4.3-1.4-20.7-1.6l-20.8-.3-.3-23.4c-.2-18.1.1-23.6 1-24.3.7-.4 9.3-.8 19.1-.8 15.1 0 17.7-.2 17.7-1.5s-2.8-1.5-19-1.5h-19l.2-23.3.3-23.2 20.8-.3c17.1-.2 20.7-.5 20.7-1.7 0-.7-.3-1.5-.7-1.7-.5-.2-12.5-.1-26.8.2m322.3-.2-25.8.2v106l26.8-.2c22.9-.3 26.7-.5 26.7-1.8s-2.8-1.5-18.5-1.7c-10.2-.1-19.5-.3-20.7-.3h-2.3v-49h18.5c15.8 0 18.5-.2 18.5-1.5s-2.7-1.5-18.5-1.5H2564v-47h21c11.6 0 21-.4 21-.9 0-2.2-4.2-2.6-28.2-2.3m-680.1.8c-.4.4-.7 24-.7 52.5v51.9l2.3.6c1.3.3 4.1.4 6.3.2l3.9-.3v-105l-5.5-.3c-3.1-.2-5.9 0-6.3.4m134 0c-.4.4-.7 24.3-.7 53.1v52.4l6.1-.3 6.1-.3-.1-25.7-.2-25.6 7.3-.7c4-.3 15.1-.5 24.7-.3l17.4.3-.2 25c-.2 19.4.1 25.4 1.1 26.6s2.6 1.4 6.6 1.1l5.2-.4v-51.3c0-28.2-.3-52-.6-52.9-.5-1.2-2-1.6-5.9-1.6h-5.2l-.6 10.7c-.4 5.8-.7 17.1-.7 25v14.3h-49l-.2-24.8-.3-24.7-5-.3c-2.8-.2-5.4 0-5.8.4m266 .1c-.4.3-.7 24.2-.7 53v52.3h27c26 0 27-.1 27-1.9 0-1.9-.9-2-20.1-2.1-11.1 0-20.6-.3-21-.6-.5-.3-.9-23.2-.9-51V3070h-5.3c-3 0-5.7.3-6 .7m186 0c-.4.3-.7 24.2-.7 53v52.3h27.1c25.2 0 27-.1 26.7-1.8-.3-1.5-2.3-1.7-20.8-2.2l-20.5-.5-.3-23.6-.2-23.6 6.7-.6c3.8-.4 12.1-.7 18.6-.7 9.7 0 11.7-.3 11.7-1.5 0-1.3-2.7-1.5-18.5-1.5H2495l.2-23.3.3-23.2 20.8-.3c17.5-.2 20.7-.5 20.7-1.7 0-1.3-3.8-1.5-26.3-1.5-14.5 0-26.7.3-27 .7"/></svg>