<svg xmlns="http://www.w3.org/2000/svg" version="1.0" viewBox="0 0 901 842"><path fill="#9A9A9A" d="M104.5 3.3c-.3.6-2.5 16.3-5 34.7S94.1 78.2 93 86.5c-1.1 8.2-2.5 18.1-3 22-.6 3.8-1.9 14-3 22.5-1.2 8.5-2.5 18.4-3 22l-5 37.5c-1.1 8.2-6 44.9-11 81.5-19.7 145.7-22.2 163.9-24.9 185.5-.4 3.3-6.5 48.8-13.6 101.2s-12.6 95.5-12.3 95.8c1.1 1.1 14.5 1.8 15.1.8.5-.9 2.9-17 8.7-60.3 1.1-8 2.8-21.3 4-29.5 1.1-8.3 4.9-37.1 8.5-64 3.6-27 9.5-70.4 13.1-96.5 7.3-53.9 9.1-66.8 15.4-114.5.6-4.4 1.5-10.9 2-14.5s1.4-10.3 2-15 1.5-11.4 2-15 3.4-25.6 6.5-49 6-43.4 6.4-44.5c.9-2.1-1.6-6.6 42.6 78.5 14.7 28.3 32 61.6 38.5 74 6.4 12.4 16.1 31 21.5 41.5 5.4 10.4 11.2 21.7 13 25s12.6 24 24 46 23.1 44.5 26 50 14.6 28 26 50 25.9 49.9 32.3 62c6.3 12.1 15.7 30.2 21 40.3 8.1 15.6 9.8 18.3 11.6 18 2.3-.3 1.9.5 27.3-47.8 9.1-17.3 21.9-41.4 28.3-53.5s15.3-29 19.8-37.5c4.4-8.5 10.3-19.7 13-24.7l4.8-9.3 5.4 4.6c21.5 18.3 48.8 30 86 36.8 14.6 2.7 39.7 4.6 61.5 4.7 26.3.1 60.2 1.2 61 2 .3.4 4.3 32.2 8.8 70.7s8.6 70.4 9 70.9c1.2 1.1 72.7 1.6 72.7.5 0-.5-2.7-23.8-6-51.8-3.2-28-6.4-55.4-7.1-60.9-.6-5.5-1.5-12.4-1.9-15.3-.6-4.3-.4-5.5.7-5.9 2.3-.9 23.6 6.5 33.7 11.7 28.6 14.5 45.1 32.2 61 65.5 8 16.7 11.7 29 14.1 47.7 1.9 14.1 1.9 20.8 0 35.1-2.1 16.1-5.5 27.1-13 42.2-8 16.2-13.7 23.9-28.4 38.5-14.9 14.8-26.7 23.1-46.6 32.9-18.1 9-26.9 12.3-47.3 18-26.5 7.5-45.7 10.1-73.7 10.1-27.4 0-49.8-3.1-72.2-9.9-3.5-1.1-6.3-1.6-6.3-1.1 0 .7 3.6 10.7 6.2 17.3 1.2 3.2 4.6 4.8 13.3 6.5 3.3.7 8.5 1.7 11.5 2.3 8.6 1.6 54.2 2.3 67.3 1 44.7-4.6 86.7-16.8 118.7-34.6 23.6-13 37.7-23.5 56-41.6 20.7-20.4 35.5-41.9 46.3-66.9 16.9-39.4 20-75.7 9.8-116.5-2.4-9.6-4.8-15.6-12-30.2-11.2-22.6-20.7-36.9-33-49.7-16-16.4-32.9-27.8-54.6-36.6-15.2-6.2-36-12.1-51-14.4-9.1-1.5-9.3-1.6-9.9-4.9-.6-3.2-4.4-35.7-18-152.2-4.1-35.2-8-67.8-8.5-72.5-1.3-10.8-2.6-22-5.1-44-1.1-9.6-2.5-21.1-3-25.5-1.9-16.4-3-25.7-4-33.8-.5-4.5-3.7-31.6-7.1-60.2-3.3-28.6-6.4-52.4-6.9-52.8-.7-.8-3.7 4.3-16 27.8-11.6 22.2-60.1 113.8-60.4 114.2-.2.2-5.8 1-12.6 1.9-27 3.5-63.4 15-87 27.6-38.5 20.4-71.9 53.7-89.9 89.7-17.9 35.6-21.5 73.4-11.1 114.2 5.5 21.6 21.7 54.5 34.6 70.5l3.3 4-9.3 18c-5.2 9.8-14 26.4-19.5 36.9-5.6 10.4-12.3 23.2-14.8 28.2-2.6 5.1-5 9.3-5.3 9.3s-3.8-6.4-7.7-14.3c-4-7.8-15.7-30.4-26.1-50.2-10.3-19.8-23.2-44.6-28.7-55-5.4-10.5-14.8-28.5-20.8-40-6-11.6-17-32.7-24.4-47s-15.4-29.6-17.8-34c-2.3-4.4-8.4-16.1-13.5-26s-14.5-27.9-20.8-40-20-38.4-30.4-58.5c-10.5-20.1-20.9-40.1-23.3-44.5-2.3-4.4-8.9-17-14.5-28-5.7-11-14-27-18.5-35.5s-14.4-27.5-22-42.2c-7.7-14.7-14.5-27-15.2-27.3-.8-.2-1.6.1-1.8.8m520 163.4c.3 3.2 1 9.2 1.5 13.3s1.4 11.8 2 17 1.5 13.1 2.1 17.5c.5 4.4 3.2 27.1 5.9 50.5 6 52.4 12.7 109 13.9 119 .5 4.1 1.5 12 2.1 17.5s1.9 16.7 2.9 24.9l1.8 14.9-19.1-.6c-74.7-2.5-110.7-10.4-142.2-31.2-11.5-7.7-11.5-7.6-7.8-14.4 1.7-3.1 10.9-20.5 20.4-38.6 9.5-18.2 18-34.4 19-36 1-1.7 7.1-13.1 13.5-25.5 6.5-12.4 19.7-37.6 29.5-56 9.7-18.4 22.5-42.7 28.5-54 5.9-11.3 11.2-21 11.7-21.7 1.1-1.4 3.7-2 9.5-2.2l4.2-.1zm-33.5-2.2c0 .6-7.8 15.4-51.5 98-17.4 33-35.3 66.7-39.6 75-18.1 34.7-26.5 49.8-27.4 49.8-1.7.1-9.2-11.3-14.4-21.8-22.6-45.6-21.1-93.1 4.3-132 6.8-10.4 20.6-24.5 33.1-33.9 20.2-15 57.8-29.6 89.5-34.6 2.5-.4 4.8-.8 5.3-.9.4 0 .7.1.7.4"/></svg>