<svg xmlns="http://www.w3.org/2000/svg" version="1.0" viewBox="0 0 895 854"><path fill="#000" d="M0 427v427h895V0H0zM111 36.8c7.3 14.1 17.5 33.6 22.5 43.2 5.1 9.6 13.2 25.1 18 34.5 13.4 26 44.5 85.6 56.5 108.5 5.9 11.3 18.3 35.1 27.5 53s17.5 33.8 18.5 35.5c1 1.6 6.1 11.5 11.5 22 5.4 10.4 14.2 27.3 19.5 37.5s13.7 26.1 18.5 35.5c4.8 9.3 13.8 26.7 20 38.5s14.7 28.2 19 36.5c4.3 8.2 12.8 24.7 19.1 36.5 6.2 11.8 12.7 24.5 14.5 28.2 1.8 3.8 3.6 6.8 3.9 6.8s2.7-4.2 5.2-9.3c2.6-5 8.8-16.9 13.8-26.2 5.1-9.4 13.8-25.9 19.6-36.9l10.4-19.8-3.4-4.2c-9.5-11.8-19-28.9-27-48.8-19.1-46.8-17.8-93.4 3.5-136 18.1-36.1 52-69.8 90.9-90.1 26.7-14 59.5-23.8 94-28.2l4.5-.6 8.6-16.2c4.8-8.9 17.8-33.5 28.9-54.7 35.2-66.6 37.8-71.5 38.7-71.5 1.1 0 1.5 3.2 7.8 57.5 6.8 58.3 8.9 76.3 12.5 106.2.5 4.6 1.7 14.6 2.6 22.3.8 7.7 1.9 17.6 2.5 22 .5 4.4 1.4 12 1.9 17 1.3 11.2 7.6 64.7 13.5 115 2.5 20.9 6.3 52.8 8.4 70.8s4.1 33 4.3 33.3c.3.2 4.5 1.1 9.4 2 33 5.6 63.7 17.7 86.6 34.2 10.8 7.7 27 24.7 35.4 37.2 13.9 20.5 27.3 50.4 30.9 69 4.1 21.5 4.4 38.5 1 60.9-6.8 44.4-29.4 85.5-64.7 118.2-16.9 15.7-29.4 24.6-50.8 36.4-23.7 13.2-56.9 24.6-88.5 30.4-36 6.7-84.1 7-110.3.7-8.7-2.1-10.8-3.2-12-6.3-2.6-6.6-6.2-16.6-6.2-17.3 0-.5 2.8 0 6.3 1.1 22.6 6.9 44.8 9.9 72.7 9.9 28.6 0 47.3-2.7 75.5-10.7 37.8-10.8 66.5-26.1 88.8-47.3 25.8-24.5 39.9-51.2 44.2-83.9 1.8-13.4 1.8-19.2-.2-35.4-2.5-21.2-10.3-43.4-22.6-64-16.5-27.8-39.9-46.3-71.5-56.7-13.8-4.5-16.6-4.9-15.8-2.3.3 1 1.4 9.9 2.6 19.8 3.1 27.8 5.7 50.4 9.5 82.3 1.9 16.2 3.2 29.8 2.9 30.3s-15.9.9-36 .9H673l-1-2.3c-.5-1.2-4.5-33.2-8.9-71.1s-8.3-69.1-8.6-69.4c-.8-.8-38.2-2-62.5-2.1-65.4-.3-113.8-14-146-41.5-3.8-3.2-5.6-4.2-6.1-3.4-.3.7-7.8 15-16.6 31.8s-22.1 42-29.5 56c-7.5 14-20.2 38.1-28.3 53.5s-15.2 28.6-15.8 29.2c-2.6 3.5-4.5 1.2-13.9-17-5.3-10-14.7-28.1-21-40.2-6.4-12.1-20.6-39.6-31.8-61-11.1-21.5-23.1-44.4-26.5-51-3.5-6.6-14.9-28.7-25.5-49-10.6-20.4-25-48-32-61.5s-21.6-41.6-32.5-62.5c-21-40.3-56-107.8-68.1-130.9-7-13.4-7.3-13.8-7.8-10.5-.7 4-8.5 61.1-12.1 88.9-1.4 10.7-3.5 26.2-4.6 34.5-1.1 8.2-2.4 18.1-2.9 22-3.2 24-10.7 79.3-14.1 104C53.7 434 36.8 558.6 33 587.7c-2 14.7-3 22.1-4.5 33.8-2.6 20.5-5.7 40.9-6.1 41.7-.3.5-3.9.8-8 .8-7.3 0-7.4 0-7.4-2.6 0-2.3 12.4-96.1 18-135.9 1.1-7.7 4.2-31.1 7-52 2.7-20.9 5.4-41.2 6-45 .5-3.9 3.5-25.7 6.5-48.5 3.1-22.8 8.5-62.7 12-88.5 3.5-25.9 8.2-60.7 10.4-77.5s4.5-33.7 5-37.5c.5-3.9 1.5-10.8 2.1-15.5s1.5-11.4 2.1-15c.5-3.6 3.2-23.6 5.9-44.5 7-52.9 12-88.8 12.5-90.2 1.1-3.1 3.9 1.4 16.5 25.5"/><path d="M603.3 169.7c-1.2.2-2.6 1-3.1 1.6-.5.7-5.8 10.4-11.7 21.7s-16.8 31.7-24 45.5c-7.3 13.7-20 37.8-28.3 53.5-8.2 15.7-25.4 48.3-38.2 72.5-17.4 32.9-23 44.3-22.3 45.5 1.5 2.3 16.6 12.3 24.9 16.4 28.7 14.2 62.9 20.2 126.5 22.3l19.6.6-1.8-14.9c-1-8.2-2.3-19.4-2.9-24.9s-1.5-13.2-2-17c-.5-3.9-1.4-11.3-2-16.5s-2.4-20.8-4-34.5c-1.7-13.8-5.1-42.6-7.5-64-2.5-21.5-5.2-44.6-6-51.5-.9-6.9-2-16.6-2.6-21.5-.5-5-1.4-12.4-1.9-16.5s-1.2-10.1-1.5-13.3l-.6-5.7-4.2.1c-2.3.1-5.2.4-6.4.6m-26.8 3c-7.9 1-23.6 5-39.2 9.9-30.4 9.8-50.6 21.6-70 41-27.1 27.1-39.4 65-33.8 103.9 1.8 12.3 3.4 18.7 8.1 31.3 4.4 11.8 7.2 17.4 13.6 27.4 6.3 9.8 7.2 10.6 9.1 7.6.8-1.3 12.6-23.5 26.2-49.3 13.6-25.9 35.4-67 48.3-91.5 37.8-71.6 42.2-80 42.2-80.5 0-.3-.3-.4-.7-.4-.5.1-2.1.4-3.8.6"/></svg>